<svg xmlns="http://www.w3.org/2000/svg" version="1.1" xmlns:xlink="http://www.w3.org/1999/xlink" xmlns:svgjs="http://svgjs.dev/svgjs" width="1500" height="1500" viewBox="0 0 1500 1500"><rect width="1500" height="1500" fill="#000000"></rect><g transform="matrix(0.6666666666666666,0,0,0.6666666666666666,249.39393939393932,570.7127505333574)"><svg viewBox="0 0 396 142" data-background-color="#89939e" preserveAspectRatio="xMidYMid meet" height="537" width="1500" xmlns="http://www.w3.org/2000/svg" xmlns:xlink="http://www.w3.org/1999/xlink"><g id="tight-bounds" transform="matrix(1,0,0,1,0.24000000000003752,0.11419887491527447)"><svg viewBox="0 0 395.5199999999999 141.77186418874876" height="141.77186418874876" width="395.5199999999999"><g><svg viewBox="0 0 681.9229757639913 244.43135999999998" height="141.77186418874876" width="395.5199999999999"><g transform="matrix(1,0,0,1,286.4029757639913,86.6579648879248)"><svg viewBox="0 0 395.52 71.11543022415039" height="71.11543022415039" width="395.52"><g id="textblocktransform"><svg viewBox="0 0 395.52 71.11543022415039" height="71.11543022415039" width="395.52" id="textblock"><g><svg viewBox="0 0 395.52 71.11543022415039" height="71.11543022415039" width="395.52"><g transform="matrix(1,0,0,1,0,0)"><svg width="395.52" viewBox="4.7 -36.8 207.43 37.3" height="71.11543022415039" data-palette-color="#ffffff"><path d="M6.2-35L18.95-35Q22.65-35 25.43-33.6 28.2-32.2 30-29.73 31.8-27.25 32.68-24.1 33.55-20.95 33.55-17.5L33.55-17.5Q33.55-12.7 31.98-8.72 30.4-4.75 27.18-2.38 23.95 0 18.95 0L18.95 0 6.2 0Q5.6 0 5.15-0.45 4.7-0.9 4.7-1.5L4.7-1.5 4.7-33.5Q4.7-34.1 5.15-34.55 5.6-35 6.2-35L6.2-35ZM7.55-2.95L18.45-2.95Q22.7-2.95 25.3-4.9 27.9-6.85 29.13-10.18 30.35-13.5 30.35-17.5L30.35-17.5Q30.35-20.4 29.68-23.03 29-25.65 27.58-27.68 26.15-29.7 23.88-30.88 21.6-32.05 18.45-32.05L18.45-32.05 7.5-32.05 7.85-32.5 7.85-2.45 7.55-2.95ZM60.65-25.55L60.65-25.55Q61.3-25.55 61.72-25.1 62.15-24.65 62.15-24L62.15-24 62.15-1.5Q62.15-0.9 61.7-0.45 61.25 0 60.65 0L60.65 0Q59.95 0 59.55-0.45 59.15-0.9 59.15-1.5L59.15-1.5 59.15-7.45 60-7.85Q60-6.45 59.22-5 58.45-3.55 57.1-2.3 55.75-1.05 53.92-0.28 52.1 0.5 49.95 0.5L49.95 0.5Q46.6 0.5 43.92-1.25 41.25-3 39.72-6.05 38.2-9.1 38.2-12.9L38.2-12.9Q38.2-16.8 39.75-19.78 41.3-22.75 43.95-24.45 46.6-26.15 49.9-26.15L49.9-26.15Q52.05-26.15 53.92-25.4 55.8-24.65 57.2-23.35 58.6-22.05 59.4-20.38 60.2-18.7 60.2-16.9L60.2-16.9 59.15-17.65 59.15-24Q59.15-24.65 59.55-25.1 59.95-25.55 60.65-25.55ZM50.25-2.3L50.25-2.3Q52.9-2.3 54.95-3.68 57-5.05 58.17-7.48 59.35-9.9 59.35-12.9L59.35-12.9Q59.35-15.85 58.17-18.2 57-20.55 54.95-21.95 52.9-23.35 50.25-23.35L50.25-23.35Q47.65-23.35 45.57-22 43.5-20.65 42.32-18.3 41.15-15.95 41.15-12.9L41.15-12.9Q41.15-9.9 42.3-7.48 43.45-5.05 45.52-3.68 47.6-2.3 50.25-2.3ZM68.35-25.45L68.35-25.45 80-25.45Q80.6-25.45 81-25.03 81.4-24.6 81.4-24L81.4-24Q81.4-23.45 81-23.05 80.6-22.65 80-22.65L80-22.65 68.35-22.65Q67.75-22.65 67.32-23.08 66.9-23.5 66.9-24.05L66.9-24.05Q66.9-24.65 67.32-25.05 67.75-25.45 68.35-25.45ZM73.5-32.5L73.5-32.5Q74.15-32.5 74.57-32.05 75-31.6 75-31L75-31 75-5.9Q75-4.5 75.37-3.8 75.75-3.1 76.35-2.88 76.95-2.65 77.55-2.65L77.55-2.65Q77.95-2.65 78.27-2.78 78.6-2.9 79-2.9L79-2.9Q79.45-2.9 79.77-2.55 80.1-2.2 80.1-1.65L80.1-1.65Q80.1-0.95 79.3-0.48 78.5 0 77.4 0L77.4 0Q76.95 0 76.05-0.08 75.15-0.15 74.2-0.63 73.25-1.1 72.62-2.3 72-3.5 72-5.75L72-5.75 72-31Q72-31.6 72.42-32.05 72.85-32.5 73.5-32.5ZM107.69-25.55L107.69-25.55Q108.34-25.55 108.77-25.1 109.19-24.65 109.19-24L109.19-24 109.19-1.5Q109.19-0.9 108.74-0.45 108.29 0 107.69 0L107.69 0Q106.99 0 106.59-0.45 106.19-0.9 106.19-1.5L106.19-1.5 106.19-7.45 107.04-7.85Q107.04-6.45 106.27-5 105.49-3.55 104.14-2.3 102.79-1.05 100.97-0.28 99.14 0.5 96.99 0.5L96.99 0.5Q93.64 0.5 90.97-1.25 88.29-3 86.77-6.05 85.24-9.1 85.24-12.9L85.24-12.9Q85.24-16.8 86.79-19.78 88.34-22.75 90.99-24.45 93.64-26.15 96.94-26.15L96.94-26.15Q99.09-26.15 100.97-25.4 102.84-24.65 104.24-23.35 105.64-22.05 106.44-20.38 107.24-18.7 107.24-16.9L107.24-16.9 106.19-17.65 106.19-24Q106.19-24.65 106.59-25.1 106.99-25.55 107.69-25.55ZM97.29-2.3L97.29-2.3Q99.94-2.3 101.99-3.68 104.04-5.05 105.22-7.48 106.39-9.9 106.39-12.9L106.39-12.9Q106.39-15.85 105.22-18.2 104.04-20.55 101.99-21.95 99.94-23.35 97.29-23.35L97.29-23.35Q94.69-23.35 92.62-22 90.54-20.65 89.37-18.3 88.19-15.95 88.19-12.9L88.19-12.9Q88.19-9.9 89.34-7.48 90.49-5.05 92.57-3.68 94.64-2.3 97.29-2.3ZM119.29-35L132.04-35Q135.74-35 138.52-33.6 141.29-32.2 143.09-29.73 144.89-27.25 145.77-24.1 146.64-20.95 146.64-17.5L146.64-17.5Q146.64-12.7 145.07-8.72 143.49-4.75 140.27-2.38 137.04 0 132.04 0L132.04 0 119.29 0Q118.69 0 118.24-0.45 117.79-0.9 117.79-1.5L117.79-1.5 117.79-33.5Q117.79-34.1 118.24-34.55 118.69-35 119.29-35L119.29-35ZM120.64-2.95L131.54-2.95Q135.79-2.95 138.39-4.9 140.99-6.85 142.22-10.18 143.44-13.5 143.44-17.5L143.44-17.5Q143.44-20.4 142.77-23.03 142.09-25.65 140.67-27.68 139.24-29.7 136.97-30.88 134.69-32.05 131.54-32.05L131.54-32.05 120.59-32.05 120.94-32.5 120.94-2.45 120.64-2.95ZM154.49 0L154.49 0Q153.79 0 153.39-0.45 152.99-0.9 152.99-1.5L152.99-1.5 152.99-23.9Q152.99-24.5 153.41-24.95 153.84-25.4 154.49-25.4L154.49-25.4Q155.14-25.4 155.56-24.95 155.99-24.5 155.99-23.9L155.99-23.9 155.99-16.4 155.24-16.25Q155.39-18 156.11-19.73 156.84-21.45 158.09-22.9 159.34-24.35 161.06-25.25 162.79-26.15 164.94-26.15L164.94-26.15Q165.84-26.15 166.69-25.78 167.54-25.4 167.54-24.55L167.54-24.55Q167.54-23.8 167.14-23.4 166.74-23 166.19-23L166.19-23Q165.74-23 165.21-23.25 164.69-23.5 163.84-23.5L163.84-23.5Q162.44-23.5 161.04-22.68 159.64-21.85 158.49-20.45 157.34-19.05 156.66-17.32 155.99-15.6 155.99-13.85L155.99-13.85 155.99-1.5Q155.99-0.9 155.54-0.45 155.09 0 154.49 0ZM175.14-24.5L175.14-1.5Q175.14-0.9 174.69-0.45 174.24 0 173.64 0L173.64 0Q172.99 0 172.56-0.45 172.14-0.9 172.14-1.5L172.14-1.5 172.14-24.5Q172.14-25.1 172.56-25.55 172.99-26 173.64-26L173.64-26Q174.29-26 174.71-25.55 175.14-25.1 175.14-24.5L175.14-24.5ZM173.64-29.35L173.64-29.35Q172.59-29.35 172.06-29.83 171.54-30.3 171.54-31.2L171.54-31.2 171.54-31.7Q171.54-32.6 172.11-33.08 172.69-33.55 173.69-33.55L173.69-33.55Q174.64-33.55 175.16-33.08 175.69-32.6 175.69-31.7L175.69-31.7 175.69-31.2Q175.69-30.3 175.16-29.83 174.64-29.35 173.64-29.35ZM192.18-36.8L192.18-36.8Q192.93-36.8 193.81-36.65 194.68-36.5 195.33-36.13 195.98-35.75 195.98-35L195.98-35Q195.98-34.45 195.58-34.02 195.18-33.6 194.68-33.6L194.68-33.6Q194.18-33.6 193.43-33.88 192.68-34.15 191.83-34.15L191.83-34.15Q190.78-34.15 190.03-33.68 189.28-33.2 188.88-32.33 188.48-31.45 188.48-30.2L188.48-30.2 188.48-1.5Q188.48-0.9 188.06-0.45 187.63 0 186.98 0L186.98 0Q186.33 0 185.91-0.45 185.48-0.9 185.48-1.5L185.48-1.5 185.48-30.2Q185.48-33.4 187.36-35.1 189.23-36.8 192.18-36.8ZM181.83-25.05L194.08-25.05Q194.68-25.05 195.08-24.65 195.48-24.25 195.48-23.65L195.48-23.65Q195.48-23.05 195.08-22.65 194.68-22.25 194.08-22.25L194.08-22.25 181.83-22.25Q181.28-22.25 180.86-22.68 180.43-23.1 180.43-23.65L180.43-23.65Q180.43-24.3 180.86-24.68 181.28-25.05 181.83-25.05L181.83-25.05ZM199.08-25.45L199.08-25.45 210.73-25.45Q211.33-25.45 211.73-25.03 212.13-24.6 212.13-24L212.13-24Q212.13-23.45 211.73-23.05 211.33-22.65 210.73-22.65L210.73-22.65 199.08-22.65Q198.48-22.65 198.06-23.08 197.63-23.5 197.63-24.05L197.63-24.05Q197.63-24.65 198.06-25.05 198.48-25.45 199.08-25.45ZM204.23-32.5L204.23-32.5Q204.88-32.5 205.31-32.05 205.73-31.6 205.73-31L205.73-31 205.73-5.9Q205.73-4.5 206.11-3.8 206.48-3.1 207.08-2.88 207.68-2.65 208.28-2.65L208.28-2.65Q208.68-2.65 209.01-2.78 209.33-2.9 209.73-2.9L209.73-2.9Q210.18-2.9 210.51-2.55 210.83-2.2 210.83-1.65L210.83-1.65Q210.83-0.95 210.03-0.48 209.23 0 208.13 0L208.13 0Q207.68 0 206.78-0.08 205.88-0.15 204.93-0.63 203.98-1.1 203.36-2.3 202.73-3.5 202.73-5.75L202.73-5.75 202.73-31Q202.73-31.6 203.16-32.05 203.58-32.5 204.23-32.5Z" opacity="1" transform="matrix(1,0,0,1,0,0)" fill="#ffffff" class="wordmark-text-0" data-fill-palette-color="primary" id="text-0"></path></svg></g></svg></g></svg></g></svg></g><g><svg viewBox="0 0 244.43135999999998 244.43135999999998" height="244.43135999999998" width="244.43135999999998"><g><svg viewBox="0 0 244.43135999999998 244.43135999999998" height="244.43135999999998" width="244.43135999999998"><g transform="matrix(1,0,0,1,64.60265593644993,74.8172607094026)"><svg viewBox="0 0 115.22604812710013 94.79683858119476" height="94.79683858119476" width="115.22604812710013"><g><svg xmlns="http://www.w3.org/2000/svg" xmlns:xlink="http://www.w3.org/1999/xlink" version="1.1" x="0" y="0" viewBox="2.18 6.640000000000001 43.43 35.730000000000004" style="enable-background:new 0 0 48 48;" xml:space="preserve" height="94.79683858119476" width="115.22604812710013" class="icon-cg-0" data-fill-palette-color="accent" id="cg-0"><g fill="#ffffff" data-fill-palette-color="accent"><path d="M20.05 40.37c-8.75 0-15.87-7.12-15.87-15.87S11.3 8.63 20.05 8.63c8.75 0 15.87 7.12 15.87 15.87 0 1.91-0.33 3.76-1 5.52l1.87 0.71c0.75-1.98 1.12-4.07 1.12-6.22 0-9.85-8.02-17.87-17.87-17.87S2.18 14.65 2.18 24.5s8.02 17.87 17.87 17.87c1.64 0 3.27-0.22 4.85-0.67l-0.54-1.93C22.96 40.17 21.51 40.37 20.05 40.37z" fill="#ffffff" data-fill-palette-color="accent"></path><path d="M29.56 25.48c1.29 0 2.47-0.6 3.23-1.64 0.76-1.04 0.98-2.33 0.59-3.56-1.84-5.87-7.21-9.81-13.36-9.81-6.15 0-11.52 3.94-13.36 9.81-0.38 1.22-0.17 2.52 0.59 3.56 0.76 1.04 1.94 1.64 3.23 1.64h2.97l0.13 1.06h-2.38c-1.35 0-2.57 0.6-3.26 1.6-0.55 0.81-0.67 1.79-0.33 2.68 0.91 2.35 2.79 4.38 5.28 5.72 0.46 0.25 0.95 0.36 1.44 0.36 1.02 0 2-0.51 2.57-1.43l1.26-2.06h3.74l1.25 2.04c0.55 0.9 1.53 1.43 2.56 1.43 0.18 0 0.36-0.02 0.54-0.05l-0.37-1.97c-0.41 0.08-0.82-0.1-1.03-0.46l-0.92-1.5c1.12-0.75 1.95-2.32 2.24-4.38h2.64c0.81 0 1.36 0.38 1.6 0.73 0.18 0.27 0.22 0.55 0.11 0.84-0.1 0.26-0.22 0.51-0.35 0.77l1.78 0.92c0.14-0.26 0.31-0.61 0.45-0.98 0.35-0.89 0.23-1.87-0.33-2.68-0.69-1-1.9-1.6-3.25-1.6h-2.39l0.13-1.06H29.56zM8.87 22.66c-0.38-0.52-0.49-1.17-0.3-1.77 1.58-5.03 6.18-8.4 11.45-8.4s9.88 3.38 11.45 8.4c0.19 0.61 0.08 1.26-0.3 1.77-0.38 0.52-0.97 0.82-1.62 0.82h-2.79c-0.02-1.14-0.36-2.21-0.94-2.87-0.41-0.47-0.94-0.72-1.49-0.72h-8.62c-0.55 0-1.08 0.26-1.49 0.72-0.58 0.66-0.92 1.73-0.94 2.87h-2.79C9.84 23.48 9.25 23.18 8.87 22.66zM13.86 34.79C11.79 33.67 10.24 32 9.5 30.1c-0.11-0.28-0.07-0.56 0.11-0.82 0.24-0.35 0.79-0.73 1.6-0.73h2.64c0.3 2.08 1.14 3.66 2.27 4.4l-0.92 1.49C14.93 34.89 14.34 35.04 13.86 34.79zM24.74 24.1l-0.5 4.02c-0.25 2.04-1.14 3.3-1.81 3.3h-4.81c-0.67 0-1.56-1.26-1.81-3.3l-0.5-4.02c-0.15-1.2 0.27-2.1 0.41-2.21l8.54-0.02C24.47 22 24.89 22.89 24.74 24.1z" fill="#ffffff" data-fill-palette-color="accent"></path><path d="M45.61 41.34c-0.01-5.5-4.49-9.97-10-9.97-5.51 0-10 4.49-10 10 0 0.55 0.45 1 1 1 0 0 0 0 0 0s0 0 0 0h2 14 2c0.55 0 1-0.45 1-1C45.61 41.36 45.61 41.35 45.61 41.34zM38.32 40.37c-0.19-0.31-0.45-0.58-0.73-0.81l0.64-1.6c0.21-0.51-0.04-1.09-0.56-1.3s-1.09 0.04-1.3 0.56l-0.65 1.64c-1.14-0.03-2.22 0.55-2.81 1.51h-4.3-0.93c0.15-1.21 0.57-2.33 1.2-3.31l0.36 0.3c0.19 0.16 0.42 0.23 0.64 0.23 0.29 0 0.57-0.12 0.77-0.36 0.36-0.42 0.3-1.05-0.12-1.41l-0.36-0.3c1.2-1.12 2.74-1.88 4.45-2.09v0.41c0 0.55 0.45 1 1 1s1-0.45 1-1v-0.41c1.71 0.21 3.25 0.97 4.45 2.09l-0.36 0.3c-0.42 0.35-0.48 0.99-0.12 1.41 0.2 0.24 0.48 0.36 0.77 0.36 0.23 0 0.45-0.08 0.64-0.23l0.36-0.3c0.63 0.98 1.05 2.1 1.2 3.31h-0.93H38.32z" fill="#ffffff" data-fill-palette-color="accent"></path></g></svg></g></svg></g><g id="text-0"><path d="M3.085 87.973l2.454-7.068c0.476-1.372 1.153-2.479 2.031-3.324 0.872-0.846 1.88-1.445 3.024-1.794 1.15-0.348 2.363-0.48 3.638-0.398 1.275 0.083 2.552 0.347 3.829 0.79v0c1.774 0.616 3.297 1.469 4.568 2.559 1.269 1.096 2.134 2.391 2.596 3.883 0.466 1.501 0.378 3.177-0.265 5.027v0l-2.454 7.068c-0.079 0.226-0.228 0.393-0.448 0.5-0.229 0.111-0.453 0.128-0.674 0.052v0l-17.751-6.163c-0.226-0.079-0.392-0.231-0.496-0.458-0.113-0.223-0.13-0.447-0.052-0.674zM21.133 93.404l2.1-6.049c0.546-1.573 0.623-2.963 0.232-4.171-0.389-1.214-1.119-2.26-2.189-3.139-1.076-0.881-2.353-1.578-3.831-2.092v0c-1.07-0.371-2.134-0.604-3.195-0.696-1.056-0.085-2.05 0.007-2.983 0.275-0.932 0.269-1.761 0.746-2.485 1.432-0.727 0.692-1.292 1.62-1.696 2.785v0l-2.11 6.077-0.186-0.286 16.675 5.789z" fill="#ffffff" data-fill-palette-color="accent"></path><path d="M35.861 42.038v0c0.163-0.194 0.364-0.299 0.603-0.316 0.245-0.012 0.464 0.063 0.658 0.226v0l10.127 8.492c0.179 0.15 0.281 0.349 0.308 0.597 0.017 0.249-0.049 0.463-0.199 0.641v0c-0.175 0.209-0.381 0.319-0.616 0.331-0.236 0.002-0.444-0.072-0.622-0.222v0l-2.679-2.246 0.137-0.537c0.424 0.355 0.754 0.832 0.991 1.43 0.241 0.593 0.38 1.252 0.414 1.978 0.034 0.716-0.06 1.445-0.283 2.187-0.232 0.744-0.618 1.437-1.157 2.08v0c-0.843 1.005-1.861 1.69-3.053 2.055-1.197 0.36-2.448 0.385-3.752 0.075-1.299-0.307-2.517-0.937-3.654-1.892v0c-1.174-0.984-2.012-2.083-2.517-3.296-0.494-1.214-0.665-2.43-0.512-3.649 0.157-1.224 0.651-2.331 1.481-3.321v0c0.543-0.648 1.163-1.159 1.858-1.532 0.695-0.373 1.412-0.606 2.151-0.699 0.748-0.094 1.473-0.051 2.174 0.128 0.706 0.184 1.327 0.5 1.863 0.949v0l-0.734 0.193-2.856-2.394c-0.194-0.163-0.311-0.36-0.349-0.594-0.03-0.234 0.043-0.455 0.218-0.664zM42.403 55.489v0c0.668-0.796 1.051-1.674 1.152-2.633 0.104-0.964-0.058-1.926-0.488-2.885-0.435-0.964-1.101-1.823-1.999-2.576v0c-0.888-0.745-1.832-1.236-2.831-1.474-0.999-0.238-1.967-0.224-2.904 0.042-0.937 0.257-1.739 0.784-2.407 1.58v0c-0.655 0.781-1.039 1.654-1.152 2.618-0.119 0.961 0.026 1.912 0.435 2.855 0.409 0.943 1.073 1.799 1.991 2.57v0c0.898 0.753 1.855 1.265 2.872 1.534 1.016 0.261 1.991 0.253 2.927-0.023 0.935-0.276 1.737-0.812 2.404-1.608z" fill="#ffffff" data-fill-palette-color="accent"></path><path d="M57.335 24.356v0l5.828-3.586c0.199-0.122 0.409-0.154 0.633-0.096 0.218 0.062 0.388 0.192 0.51 0.39v0c0.112 0.181 0.144 0.38 0.097 0.597-0.056 0.214-0.183 0.382-0.381 0.504v0l-5.828 3.587c-0.199 0.122-0.412 0.156-0.641 0.101-0.229-0.055-0.399-0.173-0.512-0.354v0c-0.122-0.199-0.154-0.409-0.096-0.633 0.062-0.218 0.192-0.388 0.39-0.51zM57.74 19.239v0c0.216-0.133 0.441-0.166 0.678-0.1 0.233 0.06 0.41 0.19 0.532 0.388v0l7.727 12.558c0.286 0.465 0.565 0.778 0.837 0.939 0.268 0.156 0.527 0.208 0.776 0.156 0.244-0.048 0.465-0.134 0.664-0.256v0c0.136-0.084 0.246-0.179 0.329-0.284 0.083-0.106 0.19-0.199 0.32-0.28v0c0.153-0.094 0.319-0.118 0.496-0.071 0.181 0.053 0.327 0.17 0.44 0.352v0c0.143 0.233 0.13 0.51-0.039 0.833-0.169 0.323-0.438 0.598-0.806 0.825v0c-0.147 0.091-0.378 0.217-0.693 0.379-0.318 0.157-0.685 0.253-1.1 0.29-0.415 0.037-0.847-0.081-1.296-0.352-0.458-0.274-0.917-0.785-1.378-1.533v0l-7.775-12.634c-0.122-0.199-0.158-0.415-0.106-0.65 0.048-0.24 0.179-0.427 0.394-0.56z" fill="#ffffff" data-fill-palette-color="accent"></path><path d="M100.025 7.094v0c0.245-0.063 0.47-0.031 0.674 0.096 0.206 0.133 0.34 0.322 0.403 0.568v0l3.269 12.806c0.058 0.226 0.025 0.447-0.099 0.664-0.131 0.212-0.31 0.347-0.536 0.405v0c-0.265 0.068-0.496 0.037-0.693-0.091-0.193-0.136-0.318-0.317-0.376-0.544v0l-0.865-3.387 0.425-0.356c0.137 0.536 0.127 1.116-0.03 1.74-0.15 0.623-0.423 1.239-0.817 1.847-0.39 0.601-0.892 1.138-1.507 1.612-0.623 0.468-1.341 0.806-2.153 1.014v0c-1.271 0.324-2.497 0.287-3.679-0.113-1.183-0.406-2.213-1.116-3.09-2.129-0.876-1.007-1.497-2.23-1.864-3.669v0c-0.379-1.484-0.419-2.866-0.12-4.145 0.307-1.274 0.878-2.362 1.714-3.262 0.842-0.902 1.889-1.513 3.14-1.833v0c0.82-0.209 1.62-0.262 2.403-0.159 0.782 0.103 1.501 0.332 2.155 0.687 0.662 0.36 1.226 0.818 1.691 1.372 0.466 0.561 0.786 1.181 0.959 1.859v0l-0.709-0.273-0.922-3.61c-0.063-0.245-0.042-0.474 0.062-0.686 0.112-0.207 0.3-0.345 0.565-0.413zM97.489 21.836v0c1.007-0.257 1.83-0.746 2.471-1.466 0.647-0.722 1.077-1.598 1.288-2.628 0.21-1.036 0.17-2.122-0.12-3.258v0c-0.287-1.123-0.766-2.073-1.439-2.85-0.673-0.777-1.467-1.33-2.383-1.66-0.911-0.338-1.87-0.378-2.876-0.121v0c-0.987 0.252-1.809 0.737-2.464 1.454-0.657 0.711-1.095 1.568-1.313 2.572-0.218 1.004-0.179 2.087 0.118 3.248v0c0.29 1.136 0.769 2.11 1.437 2.923 0.673 0.804 1.469 1.367 2.39 1.689 0.921 0.322 1.884 0.354 2.891 0.097z" fill="#ffffff" data-fill-palette-color="accent"></path><path d="M130.943 0.005l7.438 0.813c1.443 0.158 2.674 0.57 3.694 1.237 1.02 0.661 1.828 1.509 2.425 2.546 0.596 1.043 0.996 2.196 1.2 3.457 0.204 1.262 0.233 2.564 0.086 3.908v0c-0.204 1.867-0.695 3.542-1.473 5.025-0.785 1.482-1.853 2.615-3.205 3.398-1.359 0.79-3.012 1.078-4.958 0.866v0l-7.438-0.812c-0.238-0.026-0.434-0.134-0.588-0.326-0.159-0.198-0.226-0.413-0.201-0.645v0l2.04-18.679c0.026-0.238 0.138-0.434 0.335-0.587 0.192-0.16 0.407-0.227 0.645-0.201zM129.684 18.81l6.365 0.695c1.655 0.181 3.027-0.055 4.117-0.706 1.096-0.651 1.953-1.596 2.571-2.834 0.618-1.246 1.012-2.646 1.182-4.202v0c0.123-1.125 0.111-2.215-0.035-3.27-0.153-1.048-0.465-1.997-0.936-2.846-0.47-0.849-1.12-1.549-1.951-2.102-0.837-0.554-1.868-0.897-3.093-1.031v0l-6.395-0.698 0.238-0.246-1.916 17.548z" fill="#ffffff" data-fill-palette-color="accent"></path><path d="M166.342 29.92v0c-0.246-0.118-0.401-0.289-0.463-0.511-0.066-0.231-0.049-0.452 0.052-0.662v0l5.701-11.857c0.101-0.21 0.266-0.36 0.494-0.45 0.225-0.084 0.452-0.071 0.68 0.039v0c0.234 0.113 0.389 0.283 0.463 0.511 0.072 0.234 0.058 0.456-0.043 0.666v0l-1.909 3.97-0.435-0.109c0.345-0.595 0.794-1.137 1.346-1.625 0.55-0.482 1.166-0.873 1.85-1.172 0.692-0.303 1.417-0.464 2.173-0.485 0.759-0.027 1.52 0.143 2.282 0.51v0c0.318 0.153 0.595 0.368 0.832 0.644 0.237 0.276 0.283 0.565 0.138 0.865v0c-0.127 0.264-0.296 0.431-0.506 0.499-0.207 0.078-0.41 0.069-0.608-0.027v0c-0.156-0.075-0.305-0.202-0.448-0.381-0.143-0.179-0.364-0.341-0.664-0.486v0c-0.492-0.237-1.058-0.328-1.698-0.273-0.631 0.051-1.267 0.23-1.908 0.534-0.645 0.296-1.233 0.689-1.765 1.18-0.528 0.5-0.941 1.059-1.239 1.677v0l-3.142 6.536c-0.101 0.21-0.272 0.357-0.512 0.441-0.231 0.081-0.455 0.07-0.671-0.034z" fill="#ffffff" data-fill-palette-color="accent"></path><path d="M201.605 36.107l-8.8 10.245c-0.152 0.177-0.355 0.275-0.608 0.295-0.244 0.019-0.455-0.048-0.631-0.2v0c-0.197-0.169-0.302-0.374-0.316-0.614-0.009-0.245 0.062-0.456 0.214-0.633v0l8.8-10.245c0.156-0.182 0.354-0.284 0.593-0.307 0.243-0.028 0.464 0.043 0.661 0.212v0c0.192 0.165 0.293 0.37 0.301 0.614 0.013 0.24-0.058 0.451-0.214 0.633zM202.8 33.367v0c-0.313-0.269-0.49-0.539-0.529-0.81-0.035-0.276 0.062-0.548 0.292-0.816v0l0.195-0.227c0.23-0.268 0.492-0.399 0.785-0.393 0.289 0.011 0.58 0.143 0.873 0.395v0c0.283 0.243 0.444 0.5 0.484 0.77 0.035 0.276-0.062 0.548-0.293 0.816v0l-0.195 0.227c-0.23 0.268-0.484 0.405-0.762 0.412-0.274 0.002-0.557-0.123-0.85-0.374z" fill="#ffffff" data-fill-palette-color="accent"></path><path d="M228.637 57.244v0c0.162 0.244 0.317 0.525 0.465 0.843 0.138 0.316 0.216 0.62 0.235 0.912 0.018 0.292-0.095 0.519-0.339 0.681v0c-0.183 0.122-0.386 0.165-0.61 0.13-0.227-0.041-0.394-0.142-0.501-0.303v0c-0.107-0.161-0.194-0.395-0.262-0.701-0.077-0.309-0.208-0.601-0.393-0.879v0c-0.225-0.338-0.496-0.578-0.814-0.718-0.318-0.141-0.665-0.182-1.041-0.123-0.368 0.061-0.757 0.227-1.167 0.5v0l-14.032 9.334c-0.194 0.129-0.412 0.174-0.654 0.135-0.236-0.043-0.427-0.172-0.57-0.388v0c-0.14-0.211-0.184-0.433-0.133-0.668 0.058-0.238 0.183-0.422 0.378-0.551v0l14.031-9.334c1.048-0.697 2.052-0.925 3.013-0.684 0.958 0.25 1.757 0.855 2.394 1.814zM219.534 56.005l3.984 5.989c0.129 0.194 0.171 0.402 0.127 0.623-0.043 0.212-0.164 0.385-0.364 0.518v0c-0.194 0.129-0.397 0.172-0.609 0.129-0.222-0.045-0.397-0.164-0.526-0.358v0l-3.984-5.988c-0.122-0.183-0.159-0.39-0.113-0.621 0.046-0.231 0.158-0.405 0.336-0.523v0c0.216-0.144 0.431-0.187 0.645-0.13 0.214 0.057 0.382 0.178 0.504 0.361z" fill="#ffffff" data-fill-palette-color="accent"></path><path d="M234.767 85.306v0l2.078 6.52c0.071 0.222 0.051 0.435-0.059 0.637-0.112 0.197-0.279 0.33-0.501 0.401v0c-0.203 0.065-0.404 0.048-0.603-0.049-0.194-0.106-0.327-0.27-0.398-0.491v0l-2.078-6.52c-0.071-0.222-0.052-0.438 0.056-0.647 0.108-0.209 0.264-0.346 0.467-0.411v0c0.222-0.071 0.435-0.051 0.637 0.059 0.197 0.112 0.33 0.279 0.401 0.501zM239.636 86.931v0c0.077 0.241 0.055 0.468-0.066 0.682-0.114 0.211-0.283 0.352-0.504 0.423v0l-14.049 4.478c-0.52 0.166-0.891 0.361-1.113 0.585-0.216 0.223-0.328 0.461-0.338 0.716-0.012 0.248 0.018 0.484 0.089 0.706v0c0.049 0.152 0.114 0.282 0.197 0.388 0.083 0.106 0.148 0.233 0.194 0.378v0c0.055 0.171 0.038 0.337-0.051 0.499-0.095 0.163-0.244 0.277-0.447 0.341v0c-0.26 0.083-0.527 0.004-0.799-0.238-0.273-0.242-0.475-0.569-0.607-0.981v0c-0.053-0.165-0.12-0.42-0.201-0.764-0.075-0.346-0.081-0.726-0.017-1.137 0.064-0.412 0.282-0.803 0.654-1.173 0.376-0.378 0.982-0.701 1.82-0.968v0l14.134-4.505c0.222-0.071 0.441-0.053 0.656 0.053 0.222 0.104 0.371 0.277 0.448 0.517z" fill="#ffffff" data-fill-palette-color="accent"></path><path d="M28.202 152.826l2.61 7.426c0.504 1.432 0.675 2.784 0.515 4.054-0.169 1.267-0.611 2.417-1.328 3.453-0.714 1.042-1.621 1.946-2.72 2.714-1.106 0.77-2.328 1.39-3.666 1.861v0c-1.86 0.654-3.671 0.944-5.433 0.872-1.76-0.066-3.318-0.563-4.675-1.491-1.363-0.926-2.386-2.359-3.068-4.3v0l-2.611-7.427c-0.082-0.232-0.066-0.468 0.049-0.705 0.114-0.238 0.287-0.398 0.52-0.479v0l18.631-6.55c0.232-0.082 0.464-0.064 0.696 0.052 0.238 0.114 0.398 0.287 0.48 0.52zM9.817 160.168l2.232 6.351c0.579 1.646 1.426 2.841 2.542 3.586 1.11 0.747 2.394 1.128 3.854 1.144 1.456 0.025 2.96-0.236 4.512-0.781v0c1.125-0.395 2.149-0.904 3.075-1.526 0.934-0.618 1.696-1.341 2.286-2.17 0.591-0.829 0.957-1.766 1.098-2.81 0.147-1.047 0.007-2.18-0.422-3.399v0l-2.243-6.381 0.337 0.115-17.501 6.152z" fill="#ffffff" data-fill-palette-color="accent"></path><path d="M48.139 198.318v0c0.172 0.203 0.246 0.429 0.221 0.677-0.026 0.258-0.14 0.473-0.344 0.645v0l-10.589 8.982c-0.188 0.159-0.413 0.228-0.676 0.207-0.263-0.022-0.474-0.126-0.633-0.314v0c-0.185-0.218-0.261-0.451-0.226-0.699 0.035-0.248 0.146-0.451 0.333-0.611v0l2.796-2.371 0.533 0.242c-0.442 0.375-0.992 0.632-1.651 0.772-0.664 0.144-1.37 0.171-2.119 0.081-0.753-0.095-1.495-0.326-2.225-0.693-0.726-0.362-1.376-0.881-1.949-1.557v0c-0.892-1.051-1.419-2.229-1.581-3.532-0.167-1.308 0.028-2.608 0.583-3.899 0.55-1.287 1.422-2.437 2.615-3.45v0c1.224-1.038 2.51-1.71 3.858-2.015 1.343-0.301 2.635-0.266 3.875 0.106 1.24 0.381 2.299 1.089 3.178 2.125v0c0.573 0.675 0.988 1.406 1.245 2.193 0.266 0.787 0.383 1.574 0.351 2.36-0.041 0.786-0.215 1.527-0.523 2.226-0.317 0.697-0.758 1.284-1.321 1.762v0l-0.069-0.792 2.994-2.54c0.203-0.172 0.43-0.255 0.679-0.249 0.245 0.011 0.46 0.125 0.645 0.344zM33.045 202.699v0c0.707 0.833 1.549 1.389 2.527 1.667 0.975 0.274 2 0.273 3.077-0.002 1.076-0.275 2.084-0.812 3.023-1.609v0c0.924-0.784 1.597-1.674 2.02-2.669 0.427-1 0.588-2.005 0.481-3.015-0.105-1.02-0.511-1.946-1.217-2.779v0c-0.689-0.813-1.523-1.363-2.501-1.652-0.977-0.298-1.989-0.317-3.036-0.058-1.056 0.258-2.061 0.792-3.016 1.603v0c-0.94 0.797-1.637 1.699-2.093 2.705-0.456 1.007-0.622 2.021-0.498 3.042 0.12 1.016 0.531 1.938 1.233 2.767z" fill="#ffffff" data-fill-palette-color="accent"></path><path d="M65.55 212.454v0l6.146 3.738c0.211 0.128 0.342 0.309 0.394 0.543 0.047 0.231 0.006 0.452-0.122 0.663v0c-0.118 0.193-0.288 0.32-0.511 0.379-0.229 0.056-0.448 0.02-0.659-0.109v0l-6.145-3.737c-0.211-0.128-0.343-0.314-0.398-0.557-0.058-0.238-0.028-0.454 0.089-0.648v0c0.128-0.211 0.309-0.342 0.544-0.394 0.231-0.047 0.452-0.006 0.662 0.122zM70.528 210.384v0c0.228 0.138 0.37 0.334 0.426 0.586 0.051 0.249 0.013 0.479-0.115 0.69v0l-8.051 13.238c-0.298 0.489-0.455 0.896-0.473 1.221-0.018 0.324 0.054 0.59 0.216 0.798 0.162 0.208 0.348 0.376 0.559 0.503v0c0.142 0.087 0.282 0.144 0.421 0.174 0.141 0.024 0.283 0.079 0.425 0.165v0c0.159 0.097 0.26 0.24 0.301 0.429 0.038 0.194-0.002 0.388-0.12 0.582v0c-0.149 0.245-0.415 0.368-0.797 0.368-0.385-0.008-0.771-0.13-1.158-0.365v0c-0.159-0.097-0.387-0.255-0.682-0.473-0.305-0.217-0.57-0.511-0.797-0.882-0.235-0.369-0.336-0.832-0.302-1.388 0.04-0.553 0.3-1.224 0.782-2.015v0l8.097-13.315c0.128-0.211 0.314-0.35 0.559-0.42 0.245-0.069 0.481-0.035 0.709 0.104z" fill="#ffffff" data-fill-palette-color="accent"></path><path d="M104.553 227.763v0c0.258 0.065 0.45 0.206 0.574 0.422 0.129 0.225 0.161 0.466 0.096 0.724v0l-3.38 13.468c-0.06 0.239-0.203 0.426-0.43 0.562-0.226 0.135-0.459 0.173-0.697 0.113v0c-0.278-0.07-0.475-0.215-0.591-0.437-0.116-0.221-0.144-0.452-0.084-0.69v0l0.892-3.556 0.575-0.113c-0.141 0.562-0.439 1.091-0.894 1.588-0.456 0.504-1.014 0.937-1.675 1.3-0.667 0.361-1.405 0.605-2.213 0.732-0.801 0.128-1.631 0.085-2.49-0.131v0c-1.337-0.336-2.451-0.986-3.342-1.951-0.897-0.967-1.496-2.137-1.797-3.51-0.302-1.367-0.263-2.809 0.118-4.327v0c0.391-1.557 1.045-2.852 1.964-3.885 0.917-1.026 1.988-1.75 3.212-2.17 1.23-0.412 2.503-0.453 3.821-0.122v0c0.859 0.216 1.622 0.568 2.289 1.058 0.675 0.485 1.228 1.057 1.66 1.715 0.424 0.663 0.714 1.367 0.871 2.113 0.148 0.751 0.132 1.485-0.049 2.203v0l-0.518-0.604 0.956-3.808c0.065-0.258 0.201-0.458 0.408-0.598 0.205-0.134 0.447-0.166 0.724-0.096zM94.831 240.112v0c1.059 0.266 2.068 0.227 3.026-0.115 0.952-0.345 1.785-0.942 2.5-1.793 0.715-0.851 1.222-1.873 1.522-3.069v0c0.295-1.176 0.324-2.291 0.088-3.345-0.235-1.061-0.689-1.972-1.364-2.732-0.679-0.768-1.549-1.285-2.608-1.551v0c-1.034-0.259-2.032-0.222-2.995 0.113-0.968 0.327-1.802 0.9-2.502 1.721-0.708 0.825-1.215 1.844-1.519 3.058v0c-0.3 1.195-0.342 2.334-0.127 3.419 0.215 1.084 0.671 2.005 1.366 2.763 0.689 0.757 1.56 1.267 2.613 1.531z" fill="#ffffff" data-fill-palette-color="accent"></path><path d="M128.353 222.969l7.82-0.898c1.509-0.173 2.864-0.041 4.068 0.397 1.197 0.446 2.222 1.133 3.072 2.061 0.857 0.927 1.538 2.012 2.043 3.255 0.505 1.249 0.839 2.578 1.001 3.987v0c0.225 1.958 0.107 3.789-0.355 5.491-0.455 1.701-1.285 3.111-2.491 4.228-1.205 1.124-2.83 1.803-4.874 2.037v0l-7.821 0.898c-0.245 0.028-0.47-0.04-0.677-0.204-0.207-0.164-0.324-0.368-0.352-0.613v0l-2.252-19.62c-0.028-0.245 0.04-0.467 0.205-0.668 0.164-0.207 0.368-0.324 0.613-0.351zM131.433 242.524l6.689-0.768c1.733-0.199 3.087-0.76 4.06-1.682 0.974-0.916 1.631-2.084 1.971-3.505 0.347-1.414 0.427-2.938 0.239-4.572v0c-0.136-1.184-0.404-2.296-0.805-3.337-0.395-1.047-0.931-1.951-1.609-2.711-0.677-0.76-1.51-1.325-2.497-1.694-0.988-0.376-2.124-0.49-3.408-0.343v0l-6.719 0.772 0.187-0.303 2.116 18.429z" fill="#ffffff" data-fill-palette-color="accent"></path><path d="M173.728 233.249v0c-0.263 0.129-0.508 0.144-0.733 0.047-0.231-0.095-0.401-0.252-0.509-0.474v0l-6.067-12.423c-0.108-0.221-0.124-0.451-0.048-0.689 0.08-0.246 0.239-0.428 0.479-0.545v0c0.239-0.117 0.478-0.13 0.715-0.038 0.234 0.086 0.406 0.239 0.514 0.461v0l2.034 4.165-0.373 0.282c-0.262-0.673-0.414-1.395-0.458-2.166-0.04-0.766 0.038-1.531 0.236-2.294 0.201-0.758 0.539-1.46 1.016-2.109 0.471-0.645 1.104-1.162 1.9-1.55v0c0.335-0.164 0.693-0.25 1.074-0.258 0.384-0.017 0.653 0.13 0.805 0.441v0c0.137 0.281 0.166 0.53 0.087 0.747-0.077 0.223-0.214 0.382-0.411 0.479v0c-0.168 0.082-0.372 0.126-0.614 0.132-0.238-0.002-0.516 0.074-0.833 0.229v0c-0.515 0.251-0.958 0.657-1.329 1.216-0.366 0.557-0.634 1.199-0.804 1.927-0.174 0.722-0.23 1.465-0.169 2.228 0.058 0.757 0.245 1.459 0.561 2.105v0l3.345 6.849c0.108 0.221 0.122 0.455 0.043 0.702-0.086 0.249-0.239 0.428-0.461 0.536z" fill="#ffffff" data-fill-palette-color="accent"></path><path d="M192.875 202.465l9.278 10.743c0.161 0.186 0.232 0.411 0.213 0.675-0.014 0.259-0.115 0.469-0.301 0.629v0c-0.207 0.178-0.436 0.254-0.69 0.226-0.253-0.028-0.46-0.135-0.621-0.322v0l-9.278-10.743c-0.161-0.186-0.235-0.404-0.221-0.654 0.009-0.254 0.117-0.471 0.324-0.649v0c0.202-0.174 0.429-0.247 0.681-0.219 0.249 0.023 0.453 0.128 0.615 0.314zM190.227 200.805v0c-0.328 0.283-0.64 0.421-0.937 0.413-0.288-0.007-0.553-0.151-0.797-0.434v0l-0.196-0.226c-0.244-0.282-0.341-0.573-0.29-0.871 0.051-0.308 0.233-0.597 0.545-0.867v0c0.292-0.252 0.587-0.375 0.884-0.368 0.288 0.007 0.553 0.151 0.797 0.434v0l0.196 0.227c0.244 0.282 0.348 0.566 0.313 0.852-0.036 0.295-0.207 0.575-0.515 0.84z" fill="#ffffff" data-fill-palette-color="accent"></path><path d="M204.831 176.118v0c0.173-0.261 0.385-0.524 0.634-0.79 0.249-0.266 0.511-0.468 0.786-0.605 0.275-0.137 0.543-0.119 0.803 0.054v0c0.189 0.125 0.311 0.303 0.367 0.532 0.052 0.235 0.021 0.438-0.094 0.61v0c-0.114 0.172-0.304 0.354-0.567 0.546-0.268 0.198-0.497 0.441-0.69 0.729v0c-0.24 0.36-0.361 0.723-0.364 1.09-0.013 0.368 0.087 0.718 0.297 1.049 0.207 0.338 0.524 0.649 0.951 0.933v0l14.747 9.811c0.205 0.136 0.337 0.328 0.396 0.576 0.056 0.253 0.01 0.49-0.138 0.712v0c-0.148 0.222-0.347 0.353-0.598 0.394-0.251 0.041-0.479-0.007-0.684-0.144v0l-14.746-9.81c-1.092-0.727-1.717-1.603-1.876-2.628-0.154-1.031 0.104-2.05 0.776-3.059zM207.325 185.444l4.189-6.296c0.136-0.205 0.32-0.331 0.551-0.377 0.227-0.041 0.443 0.007 0.648 0.143v0c0.205 0.136 0.333 0.317 0.383 0.543 0.041 0.227-0.007 0.443-0.143 0.648v0l-4.189 6.296c-0.125 0.189-0.308 0.307-0.548 0.356-0.24 0.048-0.454 0.01-0.643-0.116v0c-0.222-0.148-0.348-0.336-0.38-0.565-0.037-0.233 0.007-0.443 0.132-0.632z" fill="#ffffff" data-fill-palette-color="accent"></path><path d="M220.315 159.904v0l2.202-6.848c0.075-0.235 0.221-0.405 0.437-0.51 0.214-0.099 0.438-0.111 0.673-0.035v0c0.216 0.069 0.378 0.206 0.487 0.408 0.108 0.209 0.124 0.431 0.049 0.666v0l-2.202 6.848c-0.075 0.235-0.225 0.407-0.45 0.516-0.218 0.112-0.435 0.133-0.65 0.064v0c-0.235-0.075-0.405-0.221-0.51-0.437-0.099-0.214-0.111-0.438-0.036-0.672zM217.142 155.546v0c0.082-0.254 0.239-0.437 0.471-0.552 0.231-0.108 0.463-0.124 0.697-0.048v0l14.75 4.743c0.545 0.175 0.978 0.234 1.298 0.176 0.32-0.058 0.561-0.19 0.725-0.396 0.164-0.206 0.284-0.426 0.36-0.661v0c0.051-0.159 0.075-0.308 0.071-0.45-0.01-0.143 0.011-0.294 0.061-0.452v0c0.057-0.178 0.173-0.308 0.347-0.392 0.18-0.082 0.378-0.088 0.593-0.019v0c0.273 0.088 0.454 0.317 0.545 0.689 0.082 0.376 0.054 0.78-0.085 1.211v0c-0.057 0.178-0.158 0.436-0.302 0.774-0.14 0.347-0.364 0.674-0.672 0.98-0.304 0.315-0.731 0.521-1.279 0.617-0.547 0.09-1.261-0.007-2.142-0.29v0l-14.835-4.771c-0.235-0.075-0.414-0.224-0.539-0.446-0.125-0.222-0.146-0.46-0.064-0.713z" fill="#ffffff" data-fill-palette-color="accent"></path><path d="M2.153 124.692c0-4.559 3.695-8.254 8.254-8.254 4.559 0 8.254 3.695 8.254 8.254 0 4.559-3.695 8.254-8.254 8.254-4.559 0-8.254-3.695-8.254-8.254z" fill="#ffffff" data-fill-palette-color="accent"></path><path d="M225.77 124.692c0-4.559 3.695-8.254 8.255-8.254 4.559 0 8.254 3.695 8.254 8.254 0 4.559-3.695 8.254-8.254 8.254-4.559 0-8.254-3.695-8.255-8.254z" fill="#ffffff" data-fill-palette-color="accent"></path></g><g id="text-1"></g></svg></g></svg></g></svg></g><defs></defs></svg><rect width="395.5199999999999" height="141.77186418874876" fill="none" stroke="none" visibility="hidden"></rect></g></svg></g></svg>